<svg xmlns="http://www.w3.org/2000/svg" xmlns:xlink="http://www.w3.org/1999/xlink" width="1000" zoomAndPan="magnify" viewBox="0 0 750 374.999991" height="500" preserveAspectRatio="xMidYMid meet" version="1.0"><defs><g/><clipPath id="b7365fadf0"><path d="M 38 69.742188 L 180 69.742188 L 180 266 L 38 266 Z M 38 69.742188 " clip-rule="nonzero"/></clipPath></defs><g clip-path="url(#b7365fadf0)"><path fill="#ffffff" d="M 85.269531 167.015625 C 77.761719 167.351562 70.292969 168.089844 62.863281 169.226562 C 70.292969 168.089844 77.761719 167.351562 85.269531 167.015625 Z M 125.558594 174.90625 C 131.089844 168 136.398438 160.882812 141.480469 153.558594 C 141.691406 153.300781 141.875 153.023438 142.0625 152.765625 C 141.875 153.023438 141.691406 153.300781 141.480469 153.558594 C 136.414062 160.867188 131.105469 167.984375 125.558594 174.90625 Z M 69.765625 231.824219 C 73.128906 233.460938 76.335938 235.363281 79.390625 237.527344 C 76.335938 235.363281 73.128906 233.460938 69.765625 231.824219 C 83.433594 220.449219 96.273438 208.207031 108.285156 195.089844 C 96.289062 208.203125 83.464844 220.449219 69.8125 231.824219 Z M 142.410156 152.230469 C 142.804688 152.765625 143.246094 153.253906 143.6875 153.746094 C 143.246094 153.253906 142.804688 152.765625 142.410156 152.230469 Z M 154.660156 163.660156 C 150.894531 167.96875 147.175781 172.320312 143.433594 176.675781 C 147.199219 172.320312 150.917969 167.96875 154.660156 163.660156 Z M 179.699219 163.824219 C 179.519531 166.53125 178.878906 169.121094 177.769531 171.597656 C 176.660156 174.074219 175.15625 176.277344 173.257812 178.210938 C 169.839844 182.191406 166.425781 186.21875 163.007812 190.222656 C 154.476562 200.234375 145.640625 210.570312 136.738281 220.648438 C 134.691406 222.976562 132.648438 225.304688 130.578125 227.75 C 120.464844 239.390625 109.050781 252.703125 94.941406 262.367188 C 93.234375 263.546875 91.390625 264.449219 89.40625 265.0625 C 87.421875 265.679688 85.394531 265.980469 83.320312 265.972656 C 79.785156 265.972656 76.476562 265.113281 73.390625 263.390625 C 72.433594 262.9375 71.511719 262.417969 70.625 261.832031 L 70.394531 261.667969 C 64.578125 257.636719 59.246094 253.042969 54.398438 247.886719 C 51.785156 246.023438 49.683594 243.695312 48.101562 240.902344 C 47.375 239.574219 46.792969 238.1875 46.351562 236.738281 C 45.910156 235.289062 45.621094 233.8125 45.480469 232.304688 C 45.34375 230.796875 45.359375 229.289062 45.53125 227.785156 C 45.703125 226.28125 46.023438 224.8125 46.496094 223.371094 C 46.496094 223.046875 46.960938 222 46.984375 221.882812 C 50.472656 211.664062 53.773438 201.933594 57.027344 192.410156 C 56.285156 192.304688 55.550781 192.164062 54.824219 191.980469 C 54.097656 191.800781 53.382812 191.582031 52.679688 191.324219 C 51.976562 191.070312 51.285156 190.777344 50.613281 190.449219 C 49.9375 190.121094 49.285156 189.761719 48.648438 189.367188 C 48.011719 188.972656 47.394531 188.542969 46.804688 188.085938 C 46.210938 187.625 45.644531 187.136719 45.101562 186.621094 C 44.5625 186.101562 44.046875 185.558594 43.5625 184.988281 C 43.078125 184.414062 42.621094 183.820312 42.199219 183.203125 C 41.773438 182.585938 41.382812 181.945312 41.023438 181.285156 C 40.667969 180.628906 40.34375 179.953125 40.054688 179.261719 C 39.769531 178.566406 39.515625 177.863281 39.300781 177.144531 C 39.085938 176.425781 38.910156 175.699219 38.769531 174.960938 C 38.628906 174.226562 38.527344 173.484375 38.464844 172.734375 C 38.402344 171.988281 38.378906 171.238281 38.394531 170.488281 C 38.40625 169.738281 38.460938 168.992188 38.550781 168.25 C 38.644531 167.503906 38.773438 166.765625 38.941406 166.035156 C 43.078125 147.296875 48.890625 128.90625 54.46875 111.144531 C 56.792969 103.902344 59.117188 96.40625 61.257812 89.144531 C 61.578125 88.042969 61.980469 86.976562 62.472656 85.941406 C 62.964844 84.90625 63.539062 83.917969 64.1875 82.976562 C 64.839844 82.035156 65.5625 81.152344 66.359375 80.328125 C 67.152344 79.503906 68.007812 78.75 68.925781 78.0625 C 69.84375 77.378906 70.808594 76.769531 71.824219 76.242188 C 72.839844 75.714844 73.890625 75.269531 74.976562 74.910156 C 76.0625 74.554688 77.171875 74.285156 78.304688 74.105469 C 79.433594 73.929688 80.570312 73.84375 81.714844 73.851562 C 82.382812 73.8125 83.046875 73.8125 83.714844 73.851562 C 92.105469 72.359375 100.3125 71.523438 108.285156 70.777344 C 111.492188 70.566406 114.679688 70.242188 117.863281 69.890625 L 118.023438 69.890625 C 118.769531 69.890625 119.511719 69.890625 120.351562 69.890625 C 122.269531 69.894531 124.160156 70.144531 126.015625 70.640625 C 127.871094 71.136719 129.632812 71.863281 131.296875 72.816406 C 132.964844 73.773438 134.484375 74.925781 135.851562 76.277344 C 137.21875 77.628906 138.390625 79.128906 139.367188 80.785156 C 144.128906 86.136719 148.261719 91.941406 151.753906 98.199219 C 152.632812 99.804688 153.304688 101.488281 153.761719 103.261719 C 154.222656 105.03125 154.457031 106.828125 154.46875 108.65625 C 154.480469 110.488281 154.269531 112.289062 153.835938 114.066406 C 153.398438 115.839844 152.753906 117.535156 151.894531 119.152344 C 151.011719 122.503906 150.058594 125.972656 148.988281 129.488281 C 150.925781 130.285156 152.722656 131.324219 154.382812 132.605469 C 156.820312 133.988281 159.144531 135.539062 161.355469 137.261719 L 162.472656 138.078125 L 163.261719 138.660156 C 166.945312 141.1875 170.371094 144.027344 173.539062 147.179688 C 174.597656 148.277344 175.535156 149.476562 176.347656 150.769531 C 177.160156 152.0625 177.832031 153.421875 178.363281 154.855469 C 178.898438 156.289062 179.277344 157.757812 179.503906 159.269531 C 179.734375 160.78125 179.804688 162.296875 179.722656 163.824219 Z M 159.3125 160.773438 C 156.695312 158.277344 153.890625 156.019531 150.894531 154 C 148.515625 151.960938 145.898438 150.300781 143.039062 149.019531 C 142.820312 148.570312 142.5 148.207031 142.085938 147.933594 C 141.667969 147.65625 141.210938 147.507812 140.714844 147.480469 L 122.117188 147.925781 C 126.773438 135.742188 130.703125 123.324219 133.902344 110.675781 C 134.152344 110.511719 134.363281 110.308594 134.539062 110.066406 C 134.714844 109.820312 134.839844 109.554688 134.917969 109.265625 C 134.996094 108.976562 135.019531 108.683594 134.988281 108.382812 C 134.957031 108.085938 134.875 107.800781 134.738281 107.535156 C 131.527344 101.769531 127.65625 96.492188 123.117188 91.703125 C 123.070312 91.382812 122.96875 91.078125 122.8125 90.792969 C 122.65625 90.507812 122.457031 90.257812 122.210938 90.046875 C 121.964844 89.832031 121.691406 89.667969 121.386719 89.550781 C 121.082031 89.4375 120.769531 89.378906 120.441406 89.378906 C 108.167969 90.703125 96.105469 91.542969 84.363281 93.847656 C 83.960938 93.929688 83.613281 94.113281 83.320312 94.40625 C 83.144531 94.105469 82.898438 93.875 82.589844 93.71875 C 82.277344 93.558594 81.949219 93.5 81.601562 93.539062 C 81.253906 93.574219 80.945312 93.703125 80.675781 93.925781 C 80.40625 94.144531 80.21875 94.421875 80.109375 94.753906 C 72.671875 119.734375 63.839844 144.828125 58.164062 170.273438 C 58.105469 170.507812 58.085938 170.746094 58.109375 170.988281 C 58.132812 171.230469 58.199219 171.460938 58.304688 171.679688 C 58.410156 171.898438 58.550781 172.09375 58.726562 172.261719 C 58.902344 172.429688 59.097656 172.5625 59.320312 172.664062 C 59.542969 172.761719 59.777344 172.816406 60.019531 172.832031 C 60.261719 172.847656 60.5 172.820312 60.730469 172.75 C 60.964844 172.679688 61.179688 172.574219 61.371094 172.425781 C 61.566406 172.28125 61.730469 172.105469 61.863281 171.902344 C 62.054688 172.023438 62.265625 172.089844 62.488281 172.113281 C 70.085938 172.320312 77.671875 172.113281 85.246094 171.484375 C 78.597656 190.292969 72.160156 209.195312 65.746094 228.050781 L 65.324219 229.308594 C 65.265625 229.46875 65.226562 229.636719 65.203125 229.804688 C 65.183594 229.976562 65.179688 230.144531 65.195312 230.316406 C 65.210938 230.488281 65.242188 230.65625 65.296875 230.816406 C 65.347656 230.980469 65.417969 231.136719 65.503906 231.285156 C 65.589844 231.433594 65.691406 231.570312 65.808594 231.695312 C 65.925781 231.820312 66.054688 231.929688 66.195312 232.027344 C 66.335938 232.125 66.488281 232.207031 66.648438 232.269531 C 66.804688 232.332031 66.96875 232.378906 67.140625 232.40625 C 71.429688 237.324219 76.265625 241.628906 81.644531 245.324219 C 81.9375 245.53125 82.265625 245.644531 82.621094 245.675781 C 82.675781 245.777344 82.746094 245.867188 82.835938 245.941406 C 82.929688 246.015625 83.03125 246.066406 83.144531 246.097656 C 83.253906 246.128906 83.371094 246.136719 83.484375 246.117188 C 83.601562 246.101562 83.707031 246.0625 83.808594 246 C 98.5 236.128906 110.492188 220.789062 122.117188 207.613281 C 134.625 193.460938 146.78125 178.980469 159.078125 164.664062 C 159.367188 164.429688 159.597656 164.148438 159.765625 163.820312 C 159.9375 163.488281 160.03125 163.140625 160.054688 162.769531 C 160.074219 162.398438 160.023438 162.042969 159.894531 161.695312 C 159.761719 161.347656 159.570312 161.039062 159.3125 160.773438 Z M 159.3125 160.773438 " fill-opacity="1" fill-rule="nonzero"/></g><path fill="#ffde17" d="M 73.300781 221.859375 C 79.15625 204.46875 84.921875 187.105469 90.570312 169.644531 C 90.605469 169.472656 90.605469 169.304688 90.570312 169.132812 C 90.59375 168.960938 90.59375 168.789062 90.570312 168.621094 C 90.539062 168.449219 90.484375 168.285156 90.410156 168.132812 C 90.265625 167.804688 90.054688 167.523438 89.78125 167.292969 C 89.523438 167.054688 89.21875 166.898438 88.875 166.828125 C 88.703125 166.792969 88.535156 166.792969 88.363281 166.828125 L 85.15625 167.058594 C 77.644531 167.398438 70.175781 168.136719 62.746094 169.273438 C 70.976562 145.78125 76.484375 121.152344 83.015625 97.222656 C 83.113281 97.386719 83.21875 97.542969 83.339844 97.6875 C 83.472656 97.839844 83.621094 97.96875 83.785156 98.082031 C 84.050781 98.238281 84.335938 98.332031 84.644531 98.363281 L 84.96875 98.363281 C 95.3125 98.082031 105.703125 96.546875 116.027344 95.289062 C 109.394531 113.648438 102.761719 132.023438 96.128906 150.414062 C 96.015625 150.828125 96.015625 151.238281 96.128906 151.648438 C 96.273438 152.28125 96.601562 152.800781 97.105469 153.210938 C 97.597656 153.640625 98.171875 153.855469 98.824219 153.859375 L 118.863281 153.394531 L 127.089844 153.1875 L 135.320312 153 C 117.375 178.417969 96.703125 201.371094 73.300781 221.859375 Z M 73.300781 221.859375 " fill-opacity="1" fill-rule="nonzero"/><path fill="#ee2a7b" d="M 154.660156 163.660156 C 150.894531 167.96875 147.175781 172.320312 143.433594 176.675781 C 135.390625 185.988281 127.324219 195.296875 119.140625 204.609375 C 110.957031 213.921875 101.636719 222.769531 93.175781 232.125 C 90.339844 235.230469 87.625 238.410156 85.039062 241.671875 L 84.738281 241.390625 C 83.085938 240.042969 81.273438 238.714844 79.414062 237.433594 C 76.359375 235.269531 73.152344 233.371094 69.789062 231.730469 C 83.445312 220.386719 96.277344 208.171875 108.285156 195.089844 C 114.25 188.570312 120.007812 181.84375 125.558594 174.90625 C 131.105469 167.96875 136.414062 160.851562 141.480469 153.558594 C 141.691406 153.300781 141.875 153.023438 142.0625 152.765625 L 142.410156 152.230469 C 144.121094 154.257812 145.988281 156.128906 148.011719 157.839844 L 149.6875 159.402344 C 151.269531 160.910156 152.929688 162.328125 154.660156 163.660156 Z M 127.136719 119.78125 C 128.371094 116.707031 129.625 113.632812 130.949219 110.632812 L 130.789062 110.445312 C 129.925781 109.351562 129.066406 108.117188 128.253906 107.046875 C 126.574219 104.660156 125.023438 102.191406 123.605469 99.644531 C 122.90625 98.363281 122.234375 97.058594 121.605469 95.753906 L 102.636719 148.367188 L 117.46875 148.019531 C 120.304688 138.566406 123.488281 129.046875 127.136719 119.78125 Z M 127.136719 119.78125 " fill-opacity="1" fill-rule="nonzero"/><path fill="#231f20" d="M 159.3125 160.773438 C 156.695312 158.277344 153.890625 156.019531 150.894531 154 C 148.515625 151.960938 145.898438 150.300781 143.039062 149.019531 C 142.820312 148.570312 142.5 148.207031 142.085938 147.933594 C 141.667969 147.65625 141.210938 147.507812 140.714844 147.480469 L 122.117188 147.925781 C 126.773438 135.742188 130.703125 123.324219 133.902344 110.675781 C 134.152344 110.511719 134.363281 110.308594 134.539062 110.066406 C 134.714844 109.820312 134.839844 109.554688 134.917969 109.265625 C 134.996094 108.976562 135.019531 108.683594 134.988281 108.382812 C 134.957031 108.085938 134.875 107.800781 134.738281 107.535156 C 131.527344 101.769531 127.65625 96.492188 123.117188 91.703125 C 123.070312 91.382812 122.96875 91.078125 122.8125 90.792969 C 122.65625 90.507812 122.457031 90.257812 122.210938 90.046875 C 121.964844 89.832031 121.691406 89.667969 121.386719 89.550781 C 121.082031 89.4375 120.769531 89.378906 120.441406 89.378906 C 108.167969 90.703125 96.105469 91.542969 84.363281 93.847656 C 83.960938 93.929688 83.613281 94.113281 83.320312 94.40625 C 83.144531 94.105469 82.898438 93.875 82.589844 93.71875 C 82.277344 93.558594 81.949219 93.5 81.601562 93.539062 C 81.253906 93.574219 80.945312 93.703125 80.675781 93.925781 C 80.40625 94.144531 80.21875 94.421875 80.109375 94.753906 C 72.671875 119.734375 63.839844 144.828125 58.164062 170.273438 C 58.105469 170.507812 58.085938 170.746094 58.109375 170.988281 C 58.132812 171.230469 58.199219 171.460938 58.304688 171.679688 C 58.410156 171.898438 58.550781 172.09375 58.726562 172.261719 C 58.902344 172.429688 59.097656 172.5625 59.320312 172.664062 C 59.542969 172.761719 59.777344 172.816406 60.019531 172.832031 C 60.261719 172.847656 60.5 172.820312 60.730469 172.75 C 60.964844 172.679688 61.179688 172.574219 61.371094 172.425781 C 61.566406 172.28125 61.730469 172.105469 61.863281 171.902344 C 62.054688 172.023438 62.265625 172.089844 62.488281 172.113281 C 70.085938 172.320312 77.671875 172.113281 85.246094 171.484375 C 78.597656 190.292969 72.160156 209.195312 65.746094 228.050781 L 65.324219 229.308594 C 65.265625 229.46875 65.226562 229.636719 65.203125 229.804688 C 65.183594 229.976562 65.179688 230.144531 65.195312 230.316406 C 65.210938 230.488281 65.242188 230.65625 65.296875 230.816406 C 65.347656 230.980469 65.417969 231.136719 65.503906 231.285156 C 65.589844 231.433594 65.691406 231.570312 65.808594 231.695312 C 65.925781 231.820312 66.054688 231.929688 66.195312 232.027344 C 66.335938 232.125 66.488281 232.207031 66.648438 232.269531 C 66.804688 232.332031 66.96875 232.378906 67.140625 232.40625 C 71.429688 237.324219 76.265625 241.628906 81.644531 245.324219 C 81.9375 245.53125 82.265625 245.644531 82.621094 245.675781 C 82.675781 245.777344 82.746094 245.867188 82.835938 245.941406 C 82.929688 246.015625 83.03125 246.066406 83.144531 246.097656 C 83.253906 246.128906 83.371094 246.136719 83.484375 246.117188 C 83.601562 246.101562 83.707031 246.0625 83.808594 246 C 98.5 236.128906 110.492188 220.789062 122.117188 207.613281 C 134.625 193.460938 146.78125 178.980469 159.078125 164.664062 C 159.367188 164.429688 159.597656 164.148438 159.765625 163.820312 C 159.9375 163.488281 160.03125 163.140625 160.054688 162.769531 C 160.074219 162.398438 160.023438 162.042969 159.894531 161.695312 C 159.761719 161.347656 159.570312 161.039062 159.3125 160.773438 Z M 121.628906 95.753906 C 122.257812 97.058594 122.929688 98.363281 123.628906 99.644531 C 125.046875 102.191406 126.597656 104.660156 128.277344 107.046875 C 129.089844 108.210938 129.949219 109.375 130.8125 110.445312 L 130.972656 110.632812 C 129.648438 113.632812 128.394531 116.707031 127.160156 119.78125 C 123.511719 129.089844 120.328125 138.566406 117.46875 148.019531 L 102.683594 148.367188 Z M 90.640625 169.644531 C 90.675781 169.472656 90.675781 169.304688 90.640625 169.132812 C 90.664062 168.960938 90.664062 168.789062 90.640625 168.621094 C 90.609375 168.449219 90.554688 168.285156 90.476562 168.132812 C 90.332031 167.804688 90.125 167.523438 89.851562 167.292969 C 89.59375 167.054688 89.289062 166.898438 88.945312 166.828125 C 88.773438 166.792969 88.601562 166.792969 88.433594 166.828125 L 85.226562 167.058594 C 77.714844 167.398438 70.246094 168.136719 62.816406 169.273438 C 70.976562 145.78125 76.484375 121.152344 83.015625 97.222656 C 83.113281 97.386719 83.21875 97.542969 83.339844 97.6875 C 83.472656 97.839844 83.621094 97.96875 83.785156 98.082031 C 84.050781 98.238281 84.335938 98.332031 84.644531 98.363281 L 84.96875 98.363281 C 95.3125 98.082031 105.703125 96.546875 116.027344 95.289062 C 109.394531 113.648438 102.761719 132.023438 96.128906 150.414062 C 96.015625 150.828125 96.015625 151.238281 96.128906 151.648438 C 96.273438 152.28125 96.601562 152.800781 97.105469 153.210938 C 97.597656 153.640625 98.171875 153.855469 98.824219 153.859375 L 118.863281 153.394531 L 127.089844 153.1875 L 135.320312 153 C 117.375 178.417969 96.703125 201.371094 73.300781 221.859375 C 79.226562 204.46875 84.921875 187.105469 90.640625 169.644531 Z M 154.660156 163.660156 C 150.894531 167.96875 147.175781 172.320312 143.433594 176.675781 C 135.390625 185.988281 127.324219 195.296875 119.140625 204.609375 C 110.957031 213.921875 101.636719 222.769531 93.175781 232.125 C 90.339844 235.230469 87.625 238.410156 85.039062 241.671875 L 84.738281 241.390625 C 83.085938 240.042969 81.273438 238.714844 79.414062 237.433594 C 76.359375 235.269531 73.152344 233.371094 69.789062 231.730469 C 83.445312 220.386719 96.277344 208.171875 108.285156 195.089844 C 114.25 188.570312 120.007812 181.84375 125.558594 174.90625 C 131.105469 167.96875 136.414062 160.851562 141.480469 153.558594 C 141.691406 153.300781 141.875 153.023438 142.0625 152.765625 L 142.410156 152.230469 C 144.121094 154.257812 145.988281 156.128906 148.011719 157.839844 L 149.6875 159.402344 C 151.269531 160.910156 152.929688 162.328125 154.660156 163.660156 Z M 154.660156 163.660156 " fill-opacity="1" fill-rule="nonzero"/><g fill="#ffffff" fill-opacity="1"><g transform="translate(189.091257, 211.499986)"><g><path d="M 33.015625 -76.203125 C 37.066406 -76.203125 41.03125 -75.613281 44.90625 -74.4375 C 48.78125 -73.257812 51.65625 -72.09375 53.53125 -70.9375 L 56.25 -69.125 L 49.34375 -55.515625 C 48.800781 -55.878906 48.046875 -56.347656 47.078125 -56.921875 C 46.109375 -57.492188 44.289062 -58.265625 41.625 -59.234375 C 38.96875 -60.203125 36.492188 -60.6875 34.203125 -60.6875 C 31.359375 -60.6875 29.164062 -60.082031 27.625 -58.875 C 26.082031 -57.664062 25.3125 -56.035156 25.3125 -53.984375 C 25.3125 -52.953125 25.671875 -51.992188 26.390625 -51.109375 C 27.117188 -50.234375 28.359375 -49.296875 30.109375 -48.296875 C 31.867188 -47.304688 33.410156 -46.507812 34.734375 -45.90625 C 36.066406 -45.300781 38.128906 -44.394531 40.921875 -43.1875 C 45.753906 -41.125 49.878906 -38.320312 53.296875 -34.78125 C 56.710938 -31.25 58.421875 -27.242188 58.421875 -22.765625 C 58.421875 -18.472656 57.648438 -14.722656 56.109375 -11.515625 C 54.566406 -8.316406 52.445312 -5.804688 49.75 -3.984375 C 47.0625 -2.171875 44.082031 -0.828125 40.8125 0.046875 C 37.550781 0.921875 34.015625 1.359375 30.203125 1.359375 C 26.941406 1.359375 23.738281 1.023438 20.59375 0.359375 C 17.445312 -0.304688 14.816406 -1.132812 12.703125 -2.125 C 10.585938 -3.125 8.679688 -4.109375 6.984375 -5.078125 C 5.285156 -6.046875 4.046875 -6.863281 3.265625 -7.53125 L 2.09375 -8.53125 L 10.609375 -22.859375 C 11.335938 -22.253906 12.335938 -21.484375 13.609375 -20.546875 C 14.878906 -19.609375 17.128906 -18.351562 20.359375 -16.78125 C 23.597656 -15.207031 26.457031 -14.421875 28.9375 -14.421875 C 36.132812 -14.421875 39.734375 -16.867188 39.734375 -21.765625 C 39.734375 -22.796875 39.472656 -23.75 38.953125 -24.625 C 38.441406 -25.507812 37.535156 -26.390625 36.234375 -27.265625 C 34.941406 -28.140625 33.796875 -28.832031 32.796875 -29.34375 C 31.796875 -29.863281 30.160156 -30.648438 27.890625 -31.703125 C 25.628906 -32.765625 23.953125 -33.566406 22.859375 -34.109375 C 18.328125 -36.347656 14.820312 -39.144531 12.34375 -42.5 C 9.863281 -45.851562 8.625 -49.46875 8.625 -53.34375 C 8.625 -60.050781 11.101562 -65.535156 16.0625 -69.796875 C 21.019531 -74.066406 26.671875 -76.203125 33.015625 -76.203125 Z M 33.015625 -76.203125 "/></g></g></g><g fill="#ffffff" fill-opacity="1"><g transform="translate(245.508062, 211.499986)"><g><path d="M 52.53125 -21.046875 L 18.78125 -21.046875 C 18.78125 -17.773438 19.835938 -15.351562 21.953125 -13.78125 C 24.066406 -12.21875 26.363281 -11.4375 28.84375 -11.4375 C 31.445312 -11.4375 33.503906 -11.78125 35.015625 -12.46875 C 36.523438 -13.164062 38.25 -14.539062 40.1875 -16.59375 L 51.796875 -10.796875 C 46.960938 -2.691406 38.921875 1.359375 27.671875 1.359375 C 20.648438 1.359375 14.628906 -1.039062 9.609375 -5.84375 C 4.597656 -10.65625 2.09375 -16.445312 2.09375 -23.21875 C 2.09375 -30 4.597656 -35.804688 9.609375 -40.640625 C 14.628906 -45.484375 20.648438 -47.90625 27.671875 -47.90625 C 35.046875 -47.90625 41.046875 -45.769531 45.671875 -41.5 C 50.296875 -37.238281 52.609375 -31.144531 52.609375 -23.21875 C 52.609375 -22.132812 52.582031 -21.410156 52.53125 -21.046875 Z M 19.234375 -29.9375 L 36.921875 -29.9375 C 36.554688 -32.351562 35.601562 -34.210938 34.0625 -35.515625 C 32.519531 -36.816406 30.539062 -37.46875 28.125 -37.46875 C 25.457031 -37.46875 23.335938 -36.769531 21.765625 -35.375 C 20.191406 -33.988281 19.347656 -32.175781 19.234375 -29.9375 Z M 19.234375 -29.9375 "/></g></g></g><g fill="#ffffff" fill-opacity="1"><g transform="translate(295.666346, 211.499986)"><g><path d="M 5.4375 0 L 5.4375 -46.53125 L 21.5 -46.53125 L 21.5 -41.640625 L 21.6875 -41.640625 C 25.851562 -45.816406 30.296875 -47.90625 35.015625 -47.90625 C 37.316406 -47.90625 39.597656 -47.597656 41.859375 -46.984375 C 44.128906 -46.378906 46.304688 -45.441406 48.390625 -44.171875 C 50.484375 -42.910156 52.175781 -41.113281 53.46875 -38.78125 C 54.769531 -36.457031 55.421875 -33.75 55.421875 -30.65625 L 55.421875 0 L 39.375 0 L 39.375 -26.3125 C 39.375 -28.726562 38.601562 -30.84375 37.0625 -32.65625 C 35.519531 -34.46875 33.507812 -35.375 31.03125 -35.375 C 28.601562 -35.375 26.40625 -34.4375 24.4375 -32.5625 C 22.476562 -30.6875 21.5 -28.601562 21.5 -26.3125 L 21.5 0 Z M 5.4375 0 "/></g></g></g><g fill="#ffffff" fill-opacity="1"><g transform="translate(351.085409, 211.499986)"><g><path d="M 8.625 -5.75 C 4.269531 -10.5 2.09375 -16.320312 2.09375 -23.21875 C 2.09375 -30.113281 4.269531 -35.953125 8.625 -40.734375 C 12.976562 -45.515625 18.507812 -47.90625 25.21875 -47.90625 C 31.382812 -47.90625 36.460938 -45.96875 40.453125 -42.09375 L 40.453125 -78.015625 L 56.515625 -78.015625 L 56.515625 0 L 40.640625 0 L 40.640625 -5.265625 L 40.453125 -5.265625 C 36.460938 -0.847656 31.382812 1.359375 25.21875 1.359375 C 18.507812 1.359375 12.976562 -1.007812 8.625 -5.75 Z M 22.265625 -31.109375 C 20.179688 -29.054688 19.140625 -26.425781 19.140625 -23.21875 C 19.140625 -20.019531 20.132812 -17.40625 22.125 -15.375 C 24.125 -13.351562 26.757812 -12.34375 30.03125 -12.34375 C 33.175781 -12.34375 35.757812 -13.367188 37.78125 -15.421875 C 39.8125 -17.472656 40.828125 -20.070312 40.828125 -23.21875 C 40.828125 -26.425781 39.78125 -29.054688 37.6875 -31.109375 C 35.601562 -33.171875 33.050781 -34.203125 30.03125 -34.203125 C 26.945312 -34.203125 24.359375 -33.171875 22.265625 -31.109375 Z M 22.265625 -31.109375 "/></g></g></g><g fill="#ffffff" fill-opacity="1"><g transform="translate(408.499934, 211.499986)"><g><path d="M 33.015625 -76.203125 C 37.066406 -76.203125 41.03125 -75.613281 44.90625 -74.4375 C 48.78125 -73.257812 51.65625 -72.09375 53.53125 -70.9375 L 56.25 -69.125 L 49.34375 -55.515625 C 48.800781 -55.878906 48.046875 -56.347656 47.078125 -56.921875 C 46.109375 -57.492188 44.289062 -58.265625 41.625 -59.234375 C 38.96875 -60.203125 36.492188 -60.6875 34.203125 -60.6875 C 31.359375 -60.6875 29.164062 -60.082031 27.625 -58.875 C 26.082031 -57.664062 25.3125 -56.035156 25.3125 -53.984375 C 25.3125 -52.953125 25.671875 -51.992188 26.390625 -51.109375 C 27.117188 -50.234375 28.359375 -49.296875 30.109375 -48.296875 C 31.867188 -47.304688 33.410156 -46.507812 34.734375 -45.90625 C 36.066406 -45.300781 38.128906 -44.394531 40.921875 -43.1875 C 45.753906 -41.125 49.878906 -38.320312 53.296875 -34.78125 C 56.710938 -31.25 58.421875 -27.242188 58.421875 -22.765625 C 58.421875 -18.472656 57.648438 -14.722656 56.109375 -11.515625 C 54.566406 -8.316406 52.445312 -5.804688 49.75 -3.984375 C 47.0625 -2.171875 44.082031 -0.828125 40.8125 0.046875 C 37.550781 0.921875 34.015625 1.359375 30.203125 1.359375 C 26.941406 1.359375 23.738281 1.023438 20.59375 0.359375 C 17.445312 -0.304688 14.816406 -1.132812 12.703125 -2.125 C 10.585938 -3.125 8.679688 -4.109375 6.984375 -5.078125 C 5.285156 -6.046875 4.046875 -6.863281 3.265625 -7.53125 L 2.09375 -8.53125 L 10.609375 -22.859375 C 11.335938 -22.253906 12.335938 -21.484375 13.609375 -20.546875 C 14.878906 -19.609375 17.128906 -18.351562 20.359375 -16.78125 C 23.597656 -15.207031 26.457031 -14.421875 28.9375 -14.421875 C 36.132812 -14.421875 39.734375 -16.867188 39.734375 -21.765625 C 39.734375 -22.796875 39.472656 -23.75 38.953125 -24.625 C 38.441406 -25.507812 37.535156 -26.390625 36.234375 -27.265625 C 34.941406 -28.140625 33.796875 -28.832031 32.796875 -29.34375 C 31.796875 -29.863281 30.160156 -30.648438 27.890625 -31.703125 C 25.628906 -32.765625 23.953125 -33.566406 22.859375 -34.109375 C 18.328125 -36.347656 14.820312 -39.144531 12.34375 -42.5 C 9.863281 -45.851562 8.625 -49.46875 8.625 -53.34375 C 8.625 -60.050781 11.101562 -65.535156 16.0625 -69.796875 C 21.019531 -74.066406 26.671875 -76.203125 33.015625 -76.203125 Z M 33.015625 -76.203125 "/></g></g></g><g fill="#ffffff" fill-opacity="1"><g transform="translate(464.916739, 211.499986)"><g><path d="M 8.625 -5.75 C 4.269531 -10.5 2.09375 -16.320312 2.09375 -23.21875 C 2.09375 -30.113281 4.269531 -35.953125 8.625 -40.734375 C 12.976562 -45.515625 18.507812 -47.90625 25.21875 -47.90625 C 31.382812 -47.90625 36.460938 -45.96875 40.453125 -42.09375 L 40.453125 -46.53125 L 56.515625 -46.53125 L 56.515625 0 L 40.640625 0 L 40.640625 -5.265625 L 40.453125 -5.265625 C 36.460938 -0.847656 31.382812 1.359375 25.21875 1.359375 C 18.507812 1.359375 12.976562 -1.007812 8.625 -5.75 Z M 22.265625 -31.109375 C 20.179688 -29.054688 19.140625 -26.425781 19.140625 -23.21875 C 19.140625 -20.019531 20.132812 -17.40625 22.125 -15.375 C 24.125 -13.351562 26.757812 -12.34375 30.03125 -12.34375 C 33.175781 -12.34375 35.757812 -13.367188 37.78125 -15.421875 C 39.8125 -17.472656 40.828125 -20.070312 40.828125 -23.21875 C 40.828125 -26.425781 39.78125 -29.054688 37.6875 -31.109375 C 35.601562 -33.171875 33.050781 -34.203125 30.03125 -34.203125 C 26.945312 -34.203125 24.359375 -33.171875 22.265625 -31.109375 Z M 22.265625 -31.109375 "/></g></g></g><g fill="#ffffff" fill-opacity="1"><g transform="translate(522.331286, 211.499986)"><g><path d="M 8.171875 -46.53125 L 8.171875 -63.859375 L 24.21875 -63.859375 L 24.21875 -46.53125 L 34.015625 -46.53125 L 34.015625 -34.296875 L 24.21875 -34.296875 L 24.21875 -19.5 C 24.21875 -15.207031 25.425781 -13.0625 27.84375 -13.0625 C 28.457031 -13.0625 29.09375 -13.179688 29.75 -13.421875 C 30.414062 -13.671875 30.929688 -13.914062 31.296875 -14.15625 L 31.84375 -14.515625 L 35.828125 -1.546875 C 32.378906 0.390625 28.453125 1.359375 24.046875 1.359375 C 21.015625 1.359375 18.410156 0.832031 16.234375 -0.21875 C 14.054688 -1.28125 12.40625 -2.703125 11.28125 -4.484375 C 10.164062 -6.273438 9.367188 -8.148438 8.890625 -10.109375 C 8.410156 -12.078125 8.171875 -14.179688 8.171875 -16.421875 L 8.171875 -34.296875 L 1.453125 -34.296875 L 1.453125 -46.53125 Z M 8.171875 -46.53125 "/></g></g></g><g fill="#ffffff" fill-opacity="1"><g transform="translate(553.623299, 211.499986)"><g><path d="M 25.671875 -47.90625 C 28.335938 -47.90625 30.96875 -47.597656 33.5625 -46.984375 C 36.164062 -46.378906 38.101562 -45.773438 39.375 -45.171875 L 41.28125 -44.265625 L 36.015625 -33.75 C 32.390625 -35.6875 28.941406 -36.65625 25.671875 -36.65625 C 23.859375 -36.65625 22.570312 -36.457031 21.8125 -36.0625 C 21.0625 -35.664062 20.6875 -34.925781 20.6875 -33.84375 C 20.6875 -33.59375 20.710938 -33.347656 20.765625 -33.109375 C 20.828125 -32.867188 20.945312 -32.640625 21.125 -32.421875 C 21.3125 -32.210938 21.476562 -32.03125 21.625 -31.875 C 21.78125 -31.726562 22.039062 -31.5625 22.40625 -31.375 C 22.769531 -31.195312 23.054688 -31.0625 23.265625 -30.96875 C 23.484375 -30.882812 23.832031 -30.75 24.3125 -30.5625 C 24.789062 -30.382812 25.148438 -30.25 25.390625 -30.15625 C 25.640625 -30.070312 26.050781 -29.9375 26.625 -29.75 C 27.195312 -29.570312 27.632812 -29.453125 27.9375 -29.390625 C 29.8125 -28.847656 31.441406 -28.242188 32.828125 -27.578125 C 34.222656 -26.910156 35.691406 -26.003906 37.234375 -24.859375 C 38.773438 -23.710938 39.96875 -22.257812 40.8125 -20.5 C 41.664062 -18.75 42.09375 -16.753906 42.09375 -14.515625 C 42.09375 -3.929688 34.742188 1.359375 20.046875 1.359375 C 16.722656 1.359375 13.5625 0.847656 10.5625 -0.171875 C 7.570312 -1.203125 5.410156 -2.234375 4.078125 -3.265625 L 2.09375 -4.90625 L 8.625 -15.875 C 9.101562 -15.445312 9.734375 -14.945312 10.515625 -14.375 C 11.304688 -13.800781 12.726562 -13.015625 14.78125 -12.015625 C 16.84375 -11.015625 18.628906 -10.515625 20.140625 -10.515625 C 23.460938 -10.515625 25.125 -11.632812 25.125 -13.875 C 25.125 -14.90625 24.703125 -15.707031 23.859375 -16.28125 C 23.015625 -16.851562 21.578125 -17.503906 19.546875 -18.234375 C 17.523438 -18.960938 15.9375 -19.628906 14.78125 -20.234375 C 11.882812 -21.742188 9.585938 -23.453125 7.890625 -25.359375 C 6.203125 -27.265625 5.359375 -29.789062 5.359375 -32.9375 C 5.359375 -37.644531 7.1875 -41.316406 10.84375 -43.953125 C 14.5 -46.585938 19.441406 -47.90625 25.671875 -47.90625 Z M 25.671875 -47.90625 "/></g></g></g><g fill="#ffffff" fill-opacity="1"><g transform="translate(593.713529, 211.499986)"><g><path d="M 15.78125 -19.40625 C 18.6875 -19.40625 21.148438 -18.390625 23.171875 -16.359375 C 25.203125 -14.335938 26.21875 -11.878906 26.21875 -8.984375 C 26.21875 -6.140625 25.203125 -3.703125 23.171875 -1.671875 C 21.148438 0.347656 18.6875 1.359375 15.78125 1.359375 C 12.9375 1.359375 10.5 0.347656 8.46875 -1.671875 C 6.445312 -3.703125 5.4375 -6.140625 5.4375 -8.984375 C 5.4375 -11.878906 6.445312 -14.335938 8.46875 -16.359375 C 10.5 -18.390625 12.9375 -19.40625 15.78125 -19.40625 Z M 15.78125 -19.40625 "/></g></g></g><g fill="#ffffff" fill-opacity="1"><g transform="translate(620.833187, 211.499986)"><g><path d="M 8.171875 -46.53125 L 8.171875 -63.859375 L 24.21875 -63.859375 L 24.21875 -46.53125 L 34.015625 -46.53125 L 34.015625 -34.296875 L 24.21875 -34.296875 L 24.21875 -19.5 C 24.21875 -15.207031 25.425781 -13.0625 27.84375 -13.0625 C 28.457031 -13.0625 29.09375 -13.179688 29.75 -13.421875 C 30.414062 -13.671875 30.929688 -13.914062 31.296875 -14.15625 L 31.84375 -14.515625 L 35.828125 -1.546875 C 32.378906 0.390625 28.453125 1.359375 24.046875 1.359375 C 21.015625 1.359375 18.410156 0.832031 16.234375 -0.21875 C 14.054688 -1.28125 12.40625 -2.703125 11.28125 -4.484375 C 10.164062 -6.273438 9.367188 -8.148438 8.890625 -10.109375 C 8.410156 -12.078125 8.171875 -14.179688 8.171875 -16.421875 L 8.171875 -34.296875 L 1.453125 -34.296875 L 1.453125 -46.53125 Z M 8.171875 -46.53125 "/></g></g></g><g fill="#ffffff" fill-opacity="1"><g transform="translate(652.125223, 211.499986)"><g><path d="M 9.84375 -5.53125 C 4.675781 -10.125 2.09375 -16.019531 2.09375 -23.21875 C 2.09375 -30.414062 4.78125 -36.328125 10.15625 -40.953125 C 15.539062 -45.585938 22.195312 -47.90625 30.125 -47.90625 C 37.925781 -47.90625 44.5 -45.570312 49.84375 -40.90625 C 55.195312 -36.25 57.875 -30.351562 57.875 -23.21875 C 57.875 -16.082031 55.257812 -10.203125 50.03125 -5.578125 C 44.800781 -0.953125 38.164062 1.359375 30.125 1.359375 C 21.769531 1.359375 15.007812 -0.9375 9.84375 -5.53125 Z M 22.265625 -31.109375 C 20.179688 -29.054688 19.140625 -26.425781 19.140625 -23.21875 C 19.140625 -20.019531 20.132812 -17.40625 22.125 -15.375 C 24.125 -13.351562 26.757812 -12.34375 30.03125 -12.34375 C 33.175781 -12.34375 35.757812 -13.367188 37.78125 -15.421875 C 39.8125 -17.472656 40.828125 -20.070312 40.828125 -23.21875 C 40.828125 -26.425781 39.78125 -29.054688 37.6875 -31.109375 C 35.601562 -33.171875 33.050781 -34.203125 30.03125 -34.203125 C 26.945312 -34.203125 24.359375 -33.171875 22.265625 -31.109375 Z M 22.265625 -31.109375 "/></g></g></g></svg>